<svg xmlns="http://www.w3.org/2000/svg" xmlns:xlink="http://www.w3.org/1999/xlink" width="500" zoomAndPan="magnify" viewBox="0 0 375 374.999991" height="500" preserveAspectRatio="xMidYMid meet" version="1.0"><defs><filter x="0%" y="0%" width="100%" height="100%" id="b4eb6f3b08"><feColorMatrix values="0 0 0 0 1 0 0 0 0 1 0 0 0 0 1 0 0 0 1 0" color-interpolation-filters="sRGB"/></filter><clipPath id="c0394ebbbe"><path d="M 164 37 L 318.320312 37 L 318.320312 374 L 164 374 Z M 164 37 " clip-rule="nonzero"/></clipPath><clipPath id="bc3d1b81e5"><path d="M 70.820312 1 L 225 1 L 225 338 L 70.820312 338 Z M 70.820312 1 " clip-rule="nonzero"/></clipPath><mask id="c22abe0473"><g filter="url(#b4eb6f3b08)"><rect x="-37.5" width="450" fill="#000000" y="-37.499999" height="449.999989" fill-opacity="0.97"/></g></mask><clipPath id="35ef6aec2f"><path d="M 0.359375 0.398438 L 22.921875 0.398438 L 22.921875 23 L 0.359375 23 Z M 0.359375 0.398438 " clip-rule="nonzero"/></clipPath><clipPath id="dead8308d6"><rect x="0" width="23" y="0" height="24"/></clipPath><clipPath id="b333bda103"><path d="M 129 139 L 280.273438 139 L 280.273438 252.476562 L 129 252.476562 Z M 129 139 " clip-rule="nonzero"/></clipPath><clipPath id="ef02e699ef"><path d="M 109.273438 122 L 261 122 L 261 236 L 109.273438 236 Z M 109.273438 122 " clip-rule="nonzero"/></clipPath></defs><g clip-path="url(#c0394ebbbe)"><path fill="#1f72e1" d="M 219.234375 370.035156 C 219.617188 369.730469 219.980469 369.40625 220.332031 369.0625 C 220.683594 368.71875 221.015625 368.359375 221.328125 367.984375 C 221.640625 367.609375 221.9375 367.21875 222.210938 366.8125 C 222.484375 366.40625 222.738281 365.988281 222.972656 365.558594 C 223.203125 365.125 223.414062 364.683594 223.601562 364.234375 C 223.789062 363.78125 223.957031 363.320312 224.097656 362.851562 C 224.238281 362.382812 224.355469 361.910156 224.453125 361.425781 C 224.546875 360.945312 224.613281 360.464844 224.660156 359.976562 C 224.707031 359.488281 224.726562 359 224.722656 358.507812 C 224.71875 358.019531 224.691406 357.53125 224.636719 357.042969 C 224.585938 356.558594 224.507812 356.074219 224.40625 355.59375 C 224.304688 355.117188 224.179688 354.644531 224.03125 354.175781 C 223.882812 353.710938 223.710938 353.253906 223.515625 352.804688 C 223.320312 352.355469 223.105469 351.914062 222.867188 351.488281 C 222.625 351.058594 222.367188 350.644531 222.085938 350.246094 C 221.804688 349.84375 221.503906 349.457031 221.1875 349.085938 L 210.820312 337.039062 L 266.582031 337.039062 C 268.269531 337.039062 269.953125 336.957031 271.632812 336.792969 C 273.316406 336.625 274.984375 336.378906 276.640625 336.050781 C 278.292969 335.71875 279.929688 335.308594 281.546875 334.820312 C 283.160156 334.328125 284.75 333.761719 286.308594 333.117188 C 287.871094 332.46875 289.394531 331.75 290.882812 330.953125 C 292.371094 330.15625 293.816406 329.289062 295.222656 328.351562 C 296.625 327.414062 297.980469 326.410156 299.285156 325.339844 C 300.589844 324.265625 301.839844 323.132812 303.035156 321.941406 C 304.226562 320.746094 305.359375 319.496094 306.429688 318.191406 C 307.503906 316.886719 308.507812 315.53125 309.445312 314.128906 C 310.382812 312.726562 311.25 311.277344 312.046875 309.789062 C 312.84375 308.300781 313.5625 306.777344 314.207031 305.214844 C 314.855469 303.65625 315.421875 302.070312 315.914062 300.453125 C 316.402344 298.835938 316.8125 297.203125 317.140625 295.546875 C 317.472656 293.890625 317.71875 292.222656 317.886719 290.542969 C 318.050781 288.859375 318.132812 287.175781 318.132812 285.488281 L 318.132812 89.511719 C 318.132812 87.824219 318.050781 86.140625 317.886719 84.460938 C 317.71875 82.777344 317.472656 81.109375 317.140625 79.453125 C 316.8125 77.800781 316.402344 76.164062 315.914062 74.546875 C 315.421875 72.933594 314.855469 71.34375 314.207031 69.785156 C 313.5625 68.222656 312.84375 66.699219 312.046875 65.210938 C 311.25 63.722656 310.382812 62.277344 309.445312 60.871094 C 308.507812 59.46875 307.503906 58.113281 306.429688 56.808594 C 305.359375 55.503906 304.226562 54.253906 303.035156 53.058594 C 301.839844 51.867188 300.589844 50.734375 299.285156 49.664062 C 297.980469 48.589844 296.625 47.585938 295.222656 46.648438 C 293.816406 45.710938 292.371094 44.84375 290.882812 44.046875 C 289.394531 43.25 287.871094 42.53125 286.308594 41.882812 C 284.75 41.238281 283.160156 40.671875 281.546875 40.179688 C 279.929688 39.691406 278.292969 39.28125 276.640625 38.953125 C 274.984375 38.621094 273.316406 38.375 271.632812 38.207031 C 269.953125 38.042969 268.269531 37.960938 266.582031 37.960938 L 257.71875 37.960938 C 256.757812 37.960938 255.808594 38.054688 254.867188 38.242188 C 253.925781 38.429688 253.011719 38.707031 252.125 39.074219 C 251.238281 39.441406 250.398438 39.890625 249.597656 40.421875 C 248.800781 40.957031 248.0625 41.5625 247.382812 42.242188 C 246.707031 42.917969 246.101562 43.65625 245.566406 44.457031 C 245.035156 45.253906 244.582031 46.09375 244.214844 46.980469 C 243.847656 47.867188 243.570312 48.78125 243.382812 49.722656 C 243.199219 50.664062 243.105469 51.613281 243.105469 52.574219 C 243.105469 53.535156 243.199219 54.484375 243.382812 55.425781 C 243.570312 56.367188 243.847656 57.28125 244.214844 58.167969 C 244.582031 59.054688 245.035156 59.894531 245.566406 60.695312 C 246.101562 61.492188 246.707031 62.230469 247.382812 62.910156 C 248.0625 63.585938 248.800781 64.191406 249.597656 64.726562 C 250.398438 65.257812 251.238281 65.710938 252.125 66.078125 C 253.011719 66.445312 253.925781 66.722656 254.867188 66.90625 C 255.808594 67.09375 256.757812 67.1875 257.71875 67.1875 L 266.582031 67.1875 C 267.3125 67.1875 268.042969 67.226562 268.769531 67.296875 C 269.496094 67.367188 270.21875 67.476562 270.9375 67.617188 C 271.652344 67.761719 272.363281 67.9375 273.0625 68.148438 C 273.761719 68.363281 274.449219 68.609375 275.125 68.886719 C 275.800781 69.167969 276.460938 69.480469 277.105469 69.824219 C 277.75 70.167969 278.375 70.546875 278.984375 70.949219 C 279.589844 71.355469 280.179688 71.792969 280.742188 72.257812 C 281.308594 72.71875 281.847656 73.210938 282.367188 73.726562 C 282.882812 74.246094 283.375 74.785156 283.835938 75.351562 C 284.300781 75.914062 284.738281 76.503906 285.140625 77.109375 C 285.546875 77.71875 285.925781 78.34375 286.269531 78.988281 C 286.613281 79.632812 286.925781 80.292969 287.207031 80.96875 C 287.484375 81.644531 287.730469 82.332031 287.945312 83.03125 C 288.15625 83.730469 288.332031 84.441406 288.476562 85.15625 C 288.617188 85.875 288.726562 86.597656 288.796875 87.324219 C 288.867188 88.050781 288.90625 88.78125 288.90625 89.511719 L 288.90625 285.488281 C 288.90625 286.21875 288.867188 286.949219 288.796875 287.675781 C 288.726562 288.402344 288.617188 289.125 288.476562 289.84375 C 288.332031 290.558594 288.15625 291.269531 287.945312 291.96875 C 287.730469 292.667969 287.484375 293.355469 287.207031 294.03125 C 286.925781 294.707031 286.613281 295.367188 286.269531 296.011719 C 285.925781 296.65625 285.546875 297.28125 285.144531 297.890625 C 284.738281 298.5 284.300781 299.085938 283.835938 299.648438 C 283.375 300.214844 282.882812 300.757812 282.367188 301.273438 C 281.847656 301.789062 281.308594 302.28125 280.742188 302.746094 C 280.179688 303.207031 279.589844 303.644531 278.984375 304.050781 C 278.375 304.457031 277.75 304.832031 277.105469 305.175781 C 276.460938 305.519531 275.800781 305.832031 275.125 306.113281 C 274.449219 306.390625 273.761719 306.636719 273.0625 306.851562 C 272.363281 307.0625 271.652344 307.238281 270.9375 307.382812 C 270.21875 307.523438 269.496094 307.632812 268.769531 307.703125 C 268.042969 307.777344 267.3125 307.8125 266.582031 307.8125 L 210.816406 307.8125 L 221.1875 295.761719 C 221.8125 295.035156 222.359375 294.253906 222.832031 293.417969 C 223.304688 292.582031 223.691406 291.710938 223.992188 290.796875 C 224.292969 289.886719 224.5 288.953125 224.617188 288.003906 C 224.730469 287.050781 224.753906 286.09375 224.683594 285.136719 C 224.609375 284.179688 224.445312 283.242188 224.191406 282.316406 C 223.933594 281.390625 223.589844 280.5 223.15625 279.644531 C 222.722656 278.789062 222.210938 277.980469 221.621094 277.226562 C 221.03125 276.46875 220.371094 275.777344 219.644531 275.152344 C 218.914062 274.527344 218.132812 273.976562 217.296875 273.507812 C 216.464844 273.035156 215.589844 272.648438 214.679688 272.347656 C 213.765625 272.046875 212.835938 271.839844 211.882812 271.722656 C 210.929688 271.605469 209.976562 271.585938 209.019531 271.65625 C 208.0625 271.726562 207.121094 271.890625 206.195312 272.148438 C 205.273438 272.40625 204.382812 272.75 203.523438 273.183594 C 202.667969 273.617188 201.863281 274.128906 201.105469 274.71875 C 200.351562 275.308594 199.660156 275.96875 199.03125 276.695312 L 167.882812 312.890625 C 167.316406 313.546875 166.8125 314.25 166.371094 315 C 165.929688 315.746094 165.558594 316.527344 165.257812 317.339844 C 164.953125 318.152344 164.726562 318.988281 164.574219 319.839844 C 164.421875 320.695312 164.34375 321.554688 164.34375 322.425781 C 164.34375 323.292969 164.421875 324.152344 164.574219 325.007812 C 164.726562 325.859375 164.953125 326.695312 165.257812 327.507812 C 165.558594 328.320312 165.929688 329.101562 166.371094 329.851562 C 166.8125 330.597656 167.316406 331.300781 167.878906 331.957031 L 198.804688 367.886719 C 203.972656 373.894531 213.046875 374.988281 219.234375 370.035156 Z M 219.234375 370.035156 " fill-opacity="1" fill-rule="nonzero"/></g><g clip-path="url(#bc3d1b81e5)"><path fill="#f6711f" d="M 122.476562 307.8125 C 121.746094 307.8125 121.019531 307.773438 120.292969 307.703125 C 119.5625 307.628906 118.84375 307.519531 118.125 307.378906 C 117.410156 307.234375 116.703125 307.058594 116.003906 306.84375 C 115.304688 306.632812 114.617188 306.386719 113.941406 306.105469 C 113.265625 305.824219 112.605469 305.511719 111.960938 305.167969 C 111.316406 304.824219 110.691406 304.445312 110.085938 304.039062 C 109.476562 303.632812 108.890625 303.199219 108.324219 302.734375 C 107.761719 302.273438 107.21875 301.78125 106.703125 301.265625 C 106.1875 300.75 105.695312 300.207031 105.234375 299.640625 C 104.769531 299.078125 104.335938 298.492188 103.929688 297.882812 C 103.523438 297.277344 103.148438 296.648438 102.804688 296.003906 C 102.457031 295.359375 102.144531 294.703125 101.867188 294.027344 C 101.585938 293.351562 101.339844 292.664062 101.128906 291.964844 C 100.914062 291.265625 100.738281 290.558594 100.59375 289.839844 C 100.453125 289.125 100.34375 288.402344 100.273438 287.675781 C 100.199219 286.949219 100.164062 286.21875 100.164062 285.488281 L 100.164062 89.511719 C 100.164062 88.78125 100.199219 88.050781 100.273438 87.324219 C 100.34375 86.597656 100.453125 85.875 100.59375 85.160156 C 100.738281 84.441406 100.914062 83.734375 101.128906 83.035156 C 101.339844 82.335938 101.585938 81.648438 101.867188 80.972656 C 102.144531 80.300781 102.457031 79.640625 102.804688 78.996094 C 103.148438 78.351562 103.523438 77.722656 103.929688 77.117188 C 104.335938 76.507812 104.769531 75.921875 105.234375 75.359375 C 105.695312 74.792969 106.1875 74.253906 106.703125 73.734375 C 107.21875 73.21875 107.761719 72.726562 108.324219 72.265625 C 108.890625 71.800781 109.476562 71.367188 110.085938 70.960938 C 110.691406 70.554688 111.316406 70.175781 111.960938 69.832031 C 112.605469 69.488281 113.265625 69.175781 113.941406 68.894531 C 114.617188 68.617188 115.304688 68.367188 116.003906 68.15625 C 116.703125 67.945312 117.410156 67.765625 118.125 67.621094 C 118.84375 67.480469 119.5625 67.371094 120.292969 67.300781 C 121.019531 67.226562 121.746094 67.191406 122.476562 67.1875 L 178.25 67.1875 L 167.878906 79.238281 C 167.253906 79.964844 166.707031 80.746094 166.234375 81.582031 C 165.761719 82.417969 165.375 83.292969 165.074219 84.203125 C 164.777344 85.113281 164.566406 86.046875 164.449219 87 C 164.335938 87.953125 164.3125 88.90625 164.382812 89.863281 C 164.457031 90.820312 164.621094 91.761719 164.878906 92.683594 C 165.132812 93.609375 165.480469 94.5 165.910156 95.355469 C 166.34375 96.214844 166.855469 97.019531 167.445312 97.777344 C 168.039062 98.53125 168.695312 99.222656 169.425781 99.847656 C 170.152344 100.472656 170.933594 101.023438 171.769531 101.496094 C 172.605469 101.96875 173.476562 102.351562 174.390625 102.652344 C 175.300781 102.953125 176.234375 103.160156 177.183594 103.277344 C 178.136719 103.394531 179.09375 103.417969 180.050781 103.34375 C 181.007812 103.273438 181.945312 103.109375 182.871094 102.851562 C 183.796875 102.59375 184.6875 102.25 185.542969 101.816406 C 186.398438 101.386719 187.207031 100.875 187.960938 100.28125 C 188.71875 99.691406 189.410156 99.03125 190.035156 98.304688 L 221.1875 62.109375 C 221.753906 61.453125 222.253906 60.75 222.695312 60 C 223.136719 59.253906 223.507812 58.472656 223.8125 57.660156 C 224.113281 56.847656 224.339844 56.011719 224.492188 55.160156 C 224.648438 54.304688 224.722656 53.445312 224.722656 52.578125 C 224.722656 51.707031 224.648438 50.847656 224.492188 49.992188 C 224.339844 49.140625 224.113281 48.304688 223.8125 47.492188 C 223.507812 46.679688 223.136719 45.898438 222.695312 45.152344 C 222.253906 44.402344 221.753906 43.699219 221.1875 43.042969 L 190.261719 7.113281 C 185.09375 1.105469 176.019531 0.0117188 169.832031 4.964844 C 169.449219 5.269531 169.085938 5.59375 168.734375 5.9375 C 168.382812 6.28125 168.050781 6.640625 167.738281 7.015625 C 167.425781 7.390625 167.128906 7.78125 166.855469 8.1875 C 166.582031 8.59375 166.328125 9.011719 166.09375 9.441406 C 165.863281 9.875 165.652344 10.316406 165.464844 10.765625 C 165.277344 11.21875 165.109375 11.679688 164.96875 12.148438 C 164.828125 12.617188 164.710938 13.09375 164.617188 13.574219 C 164.519531 14.054688 164.453125 14.539062 164.40625 15.023438 C 164.359375 15.511719 164.339844 16 164.34375 16.492188 C 164.347656 16.980469 164.375 17.46875 164.429688 17.957031 C 164.480469 18.441406 164.558594 18.925781 164.660156 19.40625 C 164.761719 19.882812 164.886719 20.359375 165.035156 20.824219 C 165.183594 21.289062 165.355469 21.75 165.550781 22.199219 C 165.746094 22.648438 165.960938 23.085938 166.203125 23.511719 C 166.441406 23.941406 166.699219 24.355469 166.980469 24.757812 C 167.261719 25.15625 167.5625 25.542969 167.882812 25.914062 L 178.25 37.960938 L 122.476562 37.960938 C 120.789062 37.960938 119.105469 38.042969 117.425781 38.207031 C 115.746094 38.375 114.078125 38.621094 112.421875 38.949219 C 110.765625 39.28125 109.132812 39.691406 107.515625 40.179688 C 105.902344 40.671875 104.3125 41.238281 102.753906 41.882812 C 101.195312 42.53125 99.667969 43.25 98.179688 44.046875 C 96.691406 44.84375 95.246094 45.710938 93.84375 46.648438 C 92.4375 47.585938 91.085938 48.589844 89.777344 49.660156 C 88.472656 50.730469 87.226562 51.863281 86.03125 53.058594 C 84.835938 54.25 83.707031 55.5 82.632812 56.804688 C 81.5625 58.109375 80.558594 59.464844 79.621094 60.867188 C 78.683594 62.273438 77.816406 63.71875 77.019531 65.207031 C 76.226562 66.695312 75.503906 68.21875 74.859375 69.78125 C 74.210938 71.339844 73.644531 72.925781 73.152344 74.542969 C 72.664062 76.15625 72.253906 77.792969 71.925781 79.449219 C 71.59375 81.105469 71.347656 82.773438 71.183594 84.453125 C 71.015625 86.132812 70.933594 87.816406 70.933594 89.503906 L 70.933594 285.488281 C 70.9375 287.175781 71.019531 288.859375 71.1875 290.539062 C 71.355469 292.21875 71.601562 293.886719 71.933594 295.539062 C 72.265625 297.195312 72.675781 298.832031 73.167969 300.445312 C 73.65625 302.058594 74.226562 303.648438 74.875 305.207031 C 75.519531 306.765625 76.242188 308.289062 77.039062 309.777344 C 77.832031 311.265625 78.699219 312.710938 79.636719 314.113281 C 80.578125 315.515625 81.582031 316.871094 82.652344 318.175781 C 83.722656 319.480469 84.855469 320.726562 86.046875 321.921875 C 87.242188 323.113281 88.488281 324.246094 89.792969 325.316406 C 91.097656 326.390625 92.453125 327.394531 93.855469 328.332031 C 95.257812 329.269531 96.703125 330.136719 98.191406 330.933594 C 99.679688 331.730469 101.203125 332.453125 102.761719 333.097656 C 104.320312 333.746094 105.90625 334.3125 107.523438 334.804688 C 109.136719 335.296875 110.769531 335.707031 112.425781 336.039062 C 114.082031 336.371094 115.75 336.617188 117.429688 336.785156 C 119.105469 336.953125 120.789062 337.039062 122.476562 337.039062 L 131.347656 337.039062 C 132.308594 337.039062 133.257812 336.945312 134.199219 336.757812 C 135.140625 336.570312 136.054688 336.292969 136.941406 335.925781 C 137.828125 335.558594 138.671875 335.109375 139.46875 334.578125 C 140.265625 334.042969 141.003906 333.4375 141.683594 332.757812 C 142.363281 332.082031 142.96875 331.34375 143.5 330.542969 C 144.035156 329.746094 144.484375 328.90625 144.851562 328.019531 C 145.21875 327.132812 145.496094 326.21875 145.683594 325.277344 C 145.871094 324.335938 145.964844 323.386719 145.964844 322.425781 C 145.964844 321.464844 145.871094 320.515625 145.683594 319.574219 C 145.496094 318.632812 145.21875 317.71875 144.851562 316.832031 C 144.484375 315.945312 144.035156 315.105469 143.5 314.304688 C 142.96875 313.507812 142.363281 312.769531 141.683594 312.09375 C 141.003906 311.414062 140.265625 310.808594 139.46875 310.273438 C 138.671875 309.742188 137.828125 309.292969 136.941406 308.925781 C 136.054688 308.558594 135.140625 308.28125 134.199219 308.09375 C 133.257812 307.90625 132.308594 307.8125 131.347656 307.8125 Z M 122.476562 307.8125 " fill-opacity="1" fill-rule="nonzero"/></g><path fill="#545454" d="M 145.433594 239.269531 L 263.828125 239.269531 C 263.828125 239.269531 230.976562 172.421875 224.492188 171.136719 C 218.003906 169.851562 189.652344 215.707031 189.652344 215.707031 C 189.652344 215.707031 174.128906 186.464844 167.832031 187.199219 C 161.539062 187.9375 145.433594 239.269531 145.433594 239.269531 Z M 145.433594 239.269531 " fill-opacity="1" fill-rule="nonzero"/><g mask="url(#c22abe0473)"><g transform="matrix(1, 0, 0, 1, 171, 152)"><g clip-path="url(#dead8308d6)"><g clip-path="url(#35ef6aec2f)"><path fill="#545454" d="M 22.722656 11.929688 C 22.722656 12.65625 22.652344 13.375 22.511719 14.085938 C 22.367188 14.796875 22.160156 15.488281 21.882812 16.160156 C 21.601562 16.832031 21.261719 17.46875 20.859375 18.070312 C 20.457031 18.675781 19.996094 19.234375 19.484375 19.746094 C 18.972656 20.257812 18.414062 20.71875 17.808594 21.121094 C 17.207031 21.523438 16.570312 21.863281 15.898438 22.140625 C 15.226562 22.417969 14.535156 22.628906 13.824219 22.769531 C 13.113281 22.914062 12.394531 22.984375 11.667969 22.984375 C 10.941406 22.984375 10.222656 22.914062 9.511719 22.769531 C 8.800781 22.628906 8.109375 22.417969 7.4375 22.140625 C 6.769531 21.863281 6.132812 21.523438 5.527344 21.121094 C 4.925781 20.71875 4.367188 20.257812 3.851562 19.746094 C 3.339844 19.234375 2.882812 18.675781 2.476562 18.070312 C 2.074219 17.46875 1.734375 16.832031 1.457031 16.160156 C 1.179688 15.488281 0.96875 14.796875 0.828125 14.085938 C 0.6875 13.375 0.613281 12.65625 0.613281 11.929688 C 0.613281 11.203125 0.6875 10.484375 0.828125 9.773438 C 0.96875 9.0625 1.179688 8.371094 1.457031 7.699219 C 1.734375 7.027344 2.074219 6.390625 2.476562 5.789062 C 2.882812 5.183594 3.339844 4.625 3.851562 4.113281 C 4.367188 3.601562 4.925781 3.140625 5.527344 2.738281 C 6.132812 2.335938 6.769531 1.996094 7.4375 1.71875 C 8.109375 1.441406 8.800781 1.230469 9.511719 1.089844 C 10.222656 0.945312 10.941406 0.875 11.667969 0.875 C 12.394531 0.875 13.113281 0.945312 13.824219 1.089844 C 14.535156 1.230469 15.226562 1.441406 15.898438 1.71875 C 16.570312 1.996094 17.207031 2.335938 17.808594 2.738281 C 18.414062 3.140625 18.972656 3.601562 19.484375 4.113281 C 19.996094 4.625 20.457031 5.183594 20.859375 5.789062 C 21.261719 6.390625 21.601562 7.027344 21.882812 7.699219 C 22.160156 8.371094 22.367188 9.0625 22.511719 9.773438 C 22.652344 10.484375 22.722656 11.203125 22.722656 11.929688 Z M 22.722656 11.929688 " fill-opacity="1" fill-rule="nonzero"/></g></g></g></g><g clip-path="url(#b333bda103)"><path fill="#545454" d="M 129.078125 139.410156 L 129.078125 252.734375 L 280.179688 252.734375 L 280.179688 139.410156 Z M 138.523438 146.964844 L 270.734375 146.964844 L 270.734375 245.179688 L 138.523438 245.179688 Z M 138.523438 146.964844 " fill-opacity="1" fill-rule="nonzero"/></g><g clip-path="url(#ef02e699ef)"><path fill="#545454" d="M 109.273438 122.027344 L 109.273438 235.351562 L 124.386719 235.351562 L 124.386719 227.796875 L 118.71875 227.796875 L 118.71875 129.582031 L 250.933594 129.582031 L 250.933594 135.386719 L 260.375 135.386719 L 260.375 122.027344 Z M 109.273438 122.027344 " fill-opacity="1" fill-rule="nonzero"/></g></svg>